<svg width="430" height="175" viewBox="0 0 430 175" xmlns="http://www.w3.org/2000/svg">
<defs><radialGradient id="bg" cx="80%" cy="20%" r="90%"><stop offset="0%" stop-color="#0E2226"/><stop offset="100%" stop-color="#0A0E12"/></radialGradient></defs>
<rect x="0.5" y="0.5" width="429" height="174" rx="14" fill="url(#bg)" stroke="#134C4C"/>
<circle cx="26" cy="27" r="3.5" fill="#00D4D4"><animate attributeName="opacity" values="1;0.25;1" dur="2.2s" repeatCount="indefinite"/></circle>
<text x="40" y="32" font-family="Consolas, 'Courier New', monospace" font-size="12" letter-spacing="3" fill="#00D4D4">LINGUAGGI PRINCIPALI</text>
<line x1="20" y1="46" x2="410" y2="46" stroke="#0E7C7B" stroke-opacity="0.35"/>
<text x="20" y="71" font-family="Segoe UI, Helvetica, Arial, sans-serif" font-size="11" fill="#F4F1EA">TypeScript</text>
<rect x="130" y="62" width="220" height="10" rx="5" fill="#0E7C7B" fill-opacity="0.18"/>
<rect x="130" y="62" width="0" height="10" rx="5" fill="#00D4D4"><animate attributeName="width" from="0" to="106.5" dur="1.2s" begin="0.0s" fill="freeze"/></rect>
<text x="360" y="71" font-family="Consolas, 'Courier New', monospace" font-size="10" fill="#93A6A6">48.4%</text>
<text x="20" y="89" font-family="Segoe UI, Helvetica, Arial, sans-serif" font-size="11" fill="#F4F1EA">MDX</text>
<rect x="130" y="80" width="220" height="10" rx="5" fill="#0E7C7B" fill-opacity="0.18"/>
<rect x="130" y="80" width="0" height="10" rx="5" fill="#2BC5C5"><animate attributeName="width" from="0" to="30.0" dur="1.2s" begin="0.1s" fill="freeze"/></rect>
<text x="360" y="89" font-family="Consolas, 'Courier New', monospace" font-size="10" fill="#93A6A6">13.7%</text>
<text x="20" y="107" font-family="Segoe UI, Helvetica, Arial, sans-serif" font-size="11" fill="#F4F1EA">CSS</text>
<rect x="130" y="98" width="220" height="10" rx="5" fill="#0E7C7B" fill-opacity="0.18"/>
<rect x="130" y="98" width="0" height="10" rx="5" fill="#33B3B3"><animate attributeName="width" from="0" to="25.6" dur="1.2s" begin="0.3s" fill="freeze"/></rect>
<text x="360" y="107" font-family="Consolas, 'Courier New', monospace" font-size="10" fill="#93A6A6">11.7%</text>
<text x="20" y="125" font-family="Segoe UI, Helvetica, Arial, sans-serif" font-size="11" fill="#F4F1EA">HTML</text>
<rect x="130" y="116" width="220" height="10" rx="5" fill="#0E7C7B" fill-opacity="0.18"/>
<rect x="130" y="116" width="0" height="10" rx="5" fill="#1E9C9B"><animate attributeName="width" from="0" to="25.2" dur="1.2s" begin="0.4s" fill="freeze"/></rect>
<text x="360" y="125" font-family="Consolas, 'Courier New', monospace" font-size="10" fill="#93A6A6">11.5%</text>
<text x="20" y="143" font-family="Segoe UI, Helvetica, Arial, sans-serif" font-size="11" fill="#F4F1EA">Rust</text>
<rect x="130" y="134" width="220" height="10" rx="5" fill="#0E7C7B" fill-opacity="0.18"/>
<rect x="130" y="134" width="0" height="10" rx="5" fill="#0E7C7B"><animate attributeName="width" from="0" to="22.0" dur="1.2s" begin="0.6s" fill="freeze"/></rect>
<text x="360" y="143" font-family="Consolas, 'Courier New', monospace" font-size="10" fill="#93A6A6">10.0%</text>
<text x="20" y="161" font-family="Segoe UI, Helvetica, Arial, sans-serif" font-size="11" fill="#F4F1EA">Python</text>
<rect x="130" y="152" width="220" height="10" rx="5" fill="#0E7C7B" fill-opacity="0.18"/>
<rect x="130" y="152" width="0" height="10" rx="5" fill="#0B5F5E"><animate attributeName="width" from="0" to="3.6" dur="1.2s" begin="0.8s" fill="freeze"/></rect>
<text x="360" y="161" font-family="Consolas, 'Courier New', monospace" font-size="10" fill="#93A6A6">1.6%</text>
</svg>